<mxfile host="app.diagrams.net" agent="Mozilla/5.0 (Windows NT 10.0; Win64; x64) AppleWebKit/537.36 (KHTML, like Gecko) Chrome/141.0.0.0 Safari/537.36" version="28.2.8">
  <diagram name="Login Sequence Diagram" id="Ek3tPosZ3TKQKGV4Kz8_">
    <mxGraphModel dx="1042" dy="574" grid="0" gridSize="10" guides="1" tooltips="1" connect="1" arrows="1" fold="1" page="1" pageScale="1" pageWidth="850" pageHeight="1100" math="0" shadow="0">
      <root>
        <mxCell id="0" />
        <mxCell id="1" parent="0" />
        <mxCell id="h-QaNk9fOkvfjqepV-o7-2" value="Website" style="shape=umlLifeline;whiteSpace=wrap;html=1;" parent="1" vertex="1">
          <mxGeometry x="318" y="62" width="100" height="400" as="geometry" />
        </mxCell>
        <mxCell id="h-QaNk9fOkvfjqepV-o7-3" value="Hệ thống xác minh" style="shape=umlLifeline;whiteSpace=wrap;html=1;" parent="1" vertex="1">
          <mxGeometry x="538" y="62" width="130" height="400" as="geometry" />
        </mxCell>
        <mxCell id="h-QaNk9fOkvfjqepV-o7-9" value="" style="shape=umlActor;verticalLabelPosition=bottom;verticalAlign=top;html=1;outlineConnect=0;" parent="1" vertex="1">
          <mxGeometry x="78" y="46" width="30" height="60" as="geometry" />
        </mxCell>
        <mxCell id="h-QaNk9fOkvfjqepV-o7-13" value="" style="endArrow=none;dashed=1;html=1;rounded=0;" parent="1" source="h-QaNk9fOkvfjqepV-o7-14" target="h-QaNk9fOkvfjqepV-o7-9" edge="1">
          <mxGeometry width="50" height="50" relative="1" as="geometry">
            <mxPoint x="89" y="470" as="sourcePoint" />
            <mxPoint x="359" y="160" as="targetPoint" />
          </mxGeometry>
        </mxCell>
        <mxCell id="h-QaNk9fOkvfjqepV-o7-15" value="" style="endArrow=none;dashed=1;html=1;rounded=0;" parent="1" target="h-QaNk9fOkvfjqepV-o7-14" edge="1">
          <mxGeometry width="50" height="50" relative="1" as="geometry">
            <mxPoint x="91" y="455" as="sourcePoint" />
            <mxPoint x="93" y="106" as="targetPoint" />
          </mxGeometry>
        </mxCell>
        <mxCell id="h-QaNk9fOkvfjqepV-o7-14" value="" style="rounded=0;whiteSpace=wrap;html=1;" parent="1" vertex="1">
          <mxGeometry x="83" y="144" width="20" height="255" as="geometry" />
        </mxCell>
        <mxCell id="h-QaNk9fOkvfjqepV-o7-17" value="" style="rounded=0;whiteSpace=wrap;html=1;" parent="1" vertex="1">
          <mxGeometry x="360" y="138" width="20" height="255" as="geometry" />
        </mxCell>
        <mxCell id="h-QaNk9fOkvfjqepV-o7-18" value="" style="rounded=0;whiteSpace=wrap;html=1;" parent="1" vertex="1">
          <mxGeometry x="593" y="144" width="20" height="168" as="geometry" />
        </mxCell>
        <mxCell id="h-QaNk9fOkvfjqepV-o7-20" value="" style="endArrow=classic;html=1;rounded=0;entryX=0.03;entryY=0.158;entryDx=0;entryDy=0;entryPerimeter=0;" parent="1" target="h-QaNk9fOkvfjqepV-o7-17" edge="1">
          <mxGeometry width="50" height="50" relative="1" as="geometry">
            <mxPoint x="105" y="177" as="sourcePoint" />
            <mxPoint x="359" y="260" as="targetPoint" />
          </mxGeometry>
        </mxCell>
        <mxCell id="h-QaNk9fOkvfjqepV-o7-21" value="" style="endArrow=classic;html=1;rounded=0;exitX=0.96;exitY=0.543;exitDx=0;exitDy=0;exitPerimeter=0;entryX=0.19;entryY=0.554;entryDx=0;entryDy=0;entryPerimeter=0;" parent="1" source="h-QaNk9fOkvfjqepV-o7-14" target="h-QaNk9fOkvfjqepV-o7-17" edge="1">
          <mxGeometry width="50" height="50" relative="1" as="geometry">
            <mxPoint x="309" y="310" as="sourcePoint" />
            <mxPoint x="359" y="260" as="targetPoint" />
          </mxGeometry>
        </mxCell>
        <mxCell id="h-QaNk9fOkvfjqepV-o7-23" value="" style="endArrow=classic;html=1;rounded=0;exitX=0.03;exitY=0.927;exitDx=0;exitDy=0;exitPerimeter=0;" parent="1" source="h-QaNk9fOkvfjqepV-o7-17" edge="1">
          <mxGeometry width="50" height="50" relative="1" as="geometry">
            <mxPoint x="309" y="310" as="sourcePoint" />
            <mxPoint x="105" y="378" as="targetPoint" />
          </mxGeometry>
        </mxCell>
        <mxCell id="h-QaNk9fOkvfjqepV-o7-24" value="5. trả kết quả xác minh&amp;nbsp;" style="html=1;verticalAlign=bottom;endArrow=open;dashed=1;endSize=8;curved=0;rounded=0;entryX=1;entryY=0.75;entryDx=0;entryDy=0;" parent="1" target="h-QaNk9fOkvfjqepV-o7-14" edge="1">
          <mxGeometry relative="1" as="geometry">
            <mxPoint x="357" y="335" as="sourcePoint" />
            <mxPoint x="294" y="285" as="targetPoint" />
          </mxGeometry>
        </mxCell>
        <mxCell id="h-QaNk9fOkvfjqepV-o7-25" value="1. NHập tông tin đăng nhập" style="text;html=1;whiteSpace=wrap;strokeColor=none;fillColor=none;align=center;verticalAlign=middle;rounded=0;" parent="1" vertex="1">
          <mxGeometry x="139" y="139" width="174" height="30" as="geometry" />
        </mxCell>
        <mxCell id="h-QaNk9fOkvfjqepV-o7-26" value="2. gửi yêu cầu đăng nhập" style="text;html=1;whiteSpace=wrap;strokeColor=none;fillColor=none;align=center;verticalAlign=middle;rounded=0;" parent="1" vertex="1">
          <mxGeometry x="139" y="244" width="184" height="30" as="geometry" />
        </mxCell>
        <mxCell id="h-QaNk9fOkvfjqepV-o7-27" value="6. hiển thị giao diện" style="text;html=1;whiteSpace=wrap;strokeColor=none;fillColor=none;align=center;verticalAlign=middle;rounded=0;" parent="1" vertex="1">
          <mxGeometry x="130" y="347" width="138" height="30" as="geometry" />
        </mxCell>
        <mxCell id="h-QaNk9fOkvfjqepV-o7-29" value="3 xác minh thông tin" style="html=1;verticalAlign=bottom;endArrow=block;curved=0;rounded=0;entryX=0.21;entryY=0.851;entryDx=0;entryDy=0;entryPerimeter=0;exitX=1.14;exitY=0.609;exitDx=0;exitDy=0;exitPerimeter=0;" parent="1" source="h-QaNk9fOkvfjqepV-o7-17" target="h-QaNk9fOkvfjqepV-o7-18" edge="1">
          <mxGeometry width="80" relative="1" as="geometry">
            <mxPoint x="294" y="285" as="sourcePoint" />
            <mxPoint x="374" y="285" as="targetPoint" />
          </mxGeometry>
        </mxCell>
        <mxCell id="h-QaNk9fOkvfjqepV-o7-30" value="4. kết quả xác minh" style="html=1;verticalAlign=bottom;endArrow=open;dashed=1;endSize=8;curved=0;rounded=0;entryX=0.99;entryY=0.714;entryDx=0;entryDy=0;entryPerimeter=0;exitX=0;exitY=1;exitDx=0;exitDy=0;" parent="1" source="h-QaNk9fOkvfjqepV-o7-18" target="h-QaNk9fOkvfjqepV-o7-17" edge="1">
          <mxGeometry relative="1" as="geometry">
            <mxPoint x="593" y="335" as="sourcePoint" />
            <mxPoint x="386" y="330" as="targetPoint" />
          </mxGeometry>
        </mxCell>
        <mxCell id="h-QaNk9fOkvfjqepV-o7-39" value="STT" style="shape=rectangle;whiteSpace=wrap;html=1;fontStyle=1;align=center;verticalAlign=middle;" parent="1" vertex="1">
          <mxGeometry x="27" y="533" width="60" height="40" as="geometry" />
        </mxCell>
        <mxCell id="h-QaNk9fOkvfjqepV-o7-40" value="Từ (Sender)" style="shape=rectangle;whiteSpace=wrap;html=1;fontStyle=1;align=center;verticalAlign=middle;" parent="1" vertex="1">
          <mxGeometry x="87" y="533" width="160" height="40" as="geometry" />
        </mxCell>
        <mxCell id="h-QaNk9fOkvfjqepV-o7-41" value="Đến (Receiver)" style="shape=rectangle;whiteSpace=wrap;html=1;fontStyle=1;align=center;verticalAlign=middle;" parent="1" vertex="1">
          <mxGeometry x="247" y="533" width="160" height="40" as="geometry" />
        </mxCell>
        <mxCell id="h-QaNk9fOkvfjqepV-o7-42" value="Nội dung thông điệp" style="shape=rectangle;whiteSpace=wrap;html=1;fontStyle=1;align=center;verticalAlign=middle;" parent="1" vertex="1">
          <mxGeometry x="407" y="533" width="220" height="40" as="geometry" />
        </mxCell>
        <mxCell id="h-QaNk9fOkvfjqepV-o7-43" value="Loại thông điệp" style="shape=rectangle;whiteSpace=wrap;html=1;fontStyle=1;align=center;verticalAlign=middle;" parent="1" vertex="1">
          <mxGeometry x="627" y="533" width="180" height="40" as="geometry" />
        </mxCell>
        <mxCell id="h-QaNk9fOkvfjqepV-o7-44" value="Mô tả chi tiết" style="shape=rectangle;whiteSpace=wrap;html=1;fontStyle=1;align=center;verticalAlign=middle;" parent="1" vertex="1">
          <mxGeometry x="807" y="533" width="300" height="40" as="geometry" />
        </mxCell>
        <mxCell id="h-QaNk9fOkvfjqepV-o7-45" value="1" style="shape=rectangle;whiteSpace=wrap;html=1;strokeColor=#6c8ebf;align=center;" parent="1" vertex="1">
          <mxGeometry x="27" y="573" width="60" height="60" as="geometry" />
        </mxCell>
        <mxCell id="h-QaNk9fOkvfjqepV-o7-46" value="Khách hàng" style="shape=rectangle;whiteSpace=wrap;html=1;strokeColor=#6c8ebf;" parent="1" vertex="1">
          <mxGeometry x="87" y="573" width="160" height="60" as="geometry" />
        </mxCell>
        <mxCell id="h-QaNk9fOkvfjqepV-o7-47" value="Website" style="shape=rectangle;whiteSpace=wrap;html=1;strokeColor=#6c8ebf;" parent="1" vertex="1">
          <mxGeometry x="247" y="573" width="160" height="60" as="geometry" />
        </mxCell>
        <mxCell id="h-QaNk9fOkvfjqepV-o7-48" value="Gửi yêu cầu đăng nhập (username, password)" style="shape=rectangle;whiteSpace=wrap;html=1;strokeColor=#6c8ebf;" parent="1" vertex="1">
          <mxGeometry x="407" y="573" width="220" height="60" as="geometry" />
        </mxCell>
        <mxCell id="h-QaNk9fOkvfjqepV-o7-49" value="Synchronous Message" style="shape=rectangle;whiteSpace=wrap;html=1;strokeColor=#6c8ebf;align=center;" parent="1" vertex="1">
          <mxGeometry x="627" y="573" width="180" height="60" as="geometry" />
        </mxCell>
        <mxCell id="h-QaNk9fOkvfjqepV-o7-50" value="Khách hàng gửi thông tin đăng nhập và chờ kết quả phản hồi từ website." style="shape=rectangle;whiteSpace=wrap;html=1;strokeColor=#6c8ebf;" parent="1" vertex="1">
          <mxGeometry x="807" y="573" width="300" height="60" as="geometry" />
        </mxCell>
        <mxCell id="h-QaNk9fOkvfjqepV-o7-51" value="2" style="shape=rectangle;whiteSpace=wrap;html=1;strokeColor=#6c8ebf;align=center;" parent="1" vertex="1">
          <mxGeometry x="27" y="633" width="60" height="60" as="geometry" />
        </mxCell>
        <mxCell id="h-QaNk9fOkvfjqepV-o7-52" value="Website" style="shape=rectangle;whiteSpace=wrap;html=1;strokeColor=#6c8ebf;" parent="1" vertex="1">
          <mxGeometry x="87" y="633" width="160" height="60" as="geometry" />
        </mxCell>
        <mxCell id="h-QaNk9fOkvfjqepV-o7-53" value="Hệ thống xác minh" style="shape=rectangle;whiteSpace=wrap;html=1;strokeColor=#6c8ebf;" parent="1" vertex="1">
          <mxGeometry x="247" y="633" width="160" height="60" as="geometry" />
        </mxCell>
        <mxCell id="h-QaNk9fOkvfjqepV-o7-54" value="Gửi thông tin xác thực để kiểm tra" style="shape=rectangle;whiteSpace=wrap;html=1;strokeColor=#6c8ebf;" parent="1" vertex="1">
          <mxGeometry x="407" y="633" width="220" height="60" as="geometry" />
        </mxCell>
        <mxCell id="h-QaNk9fOkvfjqepV-o7-55" value="Synchronous Message" style="shape=rectangle;whiteSpace=wrap;html=1;strokeColor=#6c8ebf;align=center;" parent="1" vertex="1">
          <mxGeometry x="627" y="633" width="180" height="60" as="geometry" />
        </mxCell>
        <mxCell id="h-QaNk9fOkvfjqepV-o7-56" value="Website gửi thông tin đăng nhập đến hệ thống xác minh để kiểm tra tài khoản." style="shape=rectangle;whiteSpace=wrap;html=1;strokeColor=#6c8ebf;" parent="1" vertex="1">
          <mxGeometry x="807" y="633" width="300" height="60" as="geometry" />
        </mxCell>
        <mxCell id="h-QaNk9fOkvfjqepV-o7-57" value="3" style="shape=rectangle;whiteSpace=wrap;html=1;strokeColor=#6c8ebf;align=center;" parent="1" vertex="1">
          <mxGeometry x="27" y="693" width="60" height="60" as="geometry" />
        </mxCell>
        <mxCell id="h-QaNk9fOkvfjqepV-o7-58" value="Hệ thống xác minh" style="shape=rectangle;whiteSpace=wrap;html=1;strokeColor=#6c8ebf;" parent="1" vertex="1">
          <mxGeometry x="87" y="693" width="160" height="60" as="geometry" />
        </mxCell>
        <mxCell id="h-QaNk9fOkvfjqepV-o7-59" value="Website" style="shape=rectangle;whiteSpace=wrap;html=1;strokeColor=#6c8ebf;" parent="1" vertex="1">
          <mxGeometry x="247" y="693" width="160" height="60" as="geometry" />
        </mxCell>
        <mxCell id="h-QaNk9fOkvfjqepV-o7-60" value="Trả về kết quả xác minh (đúng/sai)" style="shape=rectangle;whiteSpace=wrap;html=1;strokeColor=#6c8ebf;" parent="1" vertex="1">
          <mxGeometry x="407" y="693" width="220" height="60" as="geometry" />
        </mxCell>
        <mxCell id="h-QaNk9fOkvfjqepV-o7-61" value="Return Message" style="shape=rectangle;whiteSpace=wrap;html=1;strokeColor=#6c8ebf;align=center;" parent="1" vertex="1">
          <mxGeometry x="627" y="693" width="180" height="60" as="geometry" />
        </mxCell>
        <mxCell id="h-QaNk9fOkvfjqepV-o7-62" value="Hệ thống gửi kết quả xác thực về website (đúng hoặc sai)." style="shape=rectangle;whiteSpace=wrap;html=1;strokeColor=#6c8ebf;" parent="1" vertex="1">
          <mxGeometry x="807" y="693" width="300" height="60" as="geometry" />
        </mxCell>
        <mxCell id="h-QaNk9fOkvfjqepV-o7-63" value="4" style="shape=rectangle;whiteSpace=wrap;html=1;strokeColor=#6c8ebf;align=center;" parent="1" vertex="1">
          <mxGeometry x="27" y="753" width="60" height="60" as="geometry" />
        </mxCell>
        <mxCell id="h-QaNk9fOkvfjqepV-o7-64" value="Website" style="shape=rectangle;whiteSpace=wrap;html=1;strokeColor=#6c8ebf;" parent="1" vertex="1">
          <mxGeometry x="87" y="753" width="160" height="60" as="geometry" />
        </mxCell>
        <mxCell id="h-QaNk9fOkvfjqepV-o7-65" value="Khách hàng" style="shape=rectangle;whiteSpace=wrap;html=1;strokeColor=#6c8ebf;" parent="1" vertex="1">
          <mxGeometry x="247" y="753" width="160" height="60" as="geometry" />
        </mxCell>
        <mxCell id="h-QaNk9fOkvfjqepV-o7-66" value="Hiển thị giao diện cá nhân / Thông báo lỗi" style="shape=rectangle;whiteSpace=wrap;html=1;strokeColor=#6c8ebf;" parent="1" vertex="1">
          <mxGeometry x="407" y="753" width="220" height="60" as="geometry" />
        </mxCell>
        <mxCell id="h-QaNk9fOkvfjqepV-o7-67" value="Return Message" style="shape=rectangle;whiteSpace=wrap;html=1;strokeColor=#6c8ebf;align=center;" parent="1" vertex="1">
          <mxGeometry x="627" y="753" width="180" height="60" as="geometry" />
        </mxCell>
        <mxCell id="h-QaNk9fOkvfjqepV-o7-68" value="Website phản hồi lại người dùng tùy theo kết quả xác minh." style="shape=rectangle;whiteSpace=wrap;html=1;strokeColor=#6c8ebf;" parent="1" vertex="1">
          <mxGeometry x="807" y="753" width="300" height="60" as="geometry" />
        </mxCell>
        <mxCell id="h-QaNk9fOkvfjqepV-o7-69" value="5" style="shape=rectangle;whiteSpace=wrap;html=1;strokeColor=#6c8ebf;align=center;" parent="1" vertex="1">
          <mxGeometry x="27" y="813" width="60" height="60" as="geometry" />
        </mxCell>
        <mxCell id="h-QaNk9fOkvfjqepV-o7-70" value="Website" style="shape=rectangle;whiteSpace=wrap;html=1;strokeColor=#6c8ebf;" parent="1" vertex="1">
          <mxGeometry x="87" y="813" width="160" height="60" as="geometry" />
        </mxCell>
        <mxCell id="h-QaNk9fOkvfjqepV-o7-71" value="Dịch vụ ghi log / Email" style="shape=rectangle;whiteSpace=wrap;html=1;strokeColor=#6c8ebf;" parent="1" vertex="1">
          <mxGeometry x="247" y="813" width="160" height="60" as="geometry" />
        </mxCell>
        <mxCell id="h-QaNk9fOkvfjqepV-o7-72" value="Ghi nhận sự kiện đăng nhập thành công" style="shape=rectangle;whiteSpace=wrap;html=1;strokeColor=#6c8ebf;" parent="1" vertex="1">
          <mxGeometry x="407" y="813" width="220" height="60" as="geometry" />
        </mxCell>
        <mxCell id="h-QaNk9fOkvfjqepV-o7-73" value="Asynchronous Message" style="shape=rectangle;whiteSpace=wrap;html=1;strokeColor=#6c8ebf;align=center;" parent="1" vertex="1">
          <mxGeometry x="627" y="813" width="180" height="60" as="geometry" />
        </mxCell>
        <mxCell id="h-QaNk9fOkvfjqepV-o7-74" value="Website ghi log hoặc gửi email thông báo, không cần chờ phản hồi." style="shape=rectangle;whiteSpace=wrap;html=1;strokeColor=#6c8ebf;" parent="1" vertex="1">
          <mxGeometry x="807" y="813" width="300" height="60" as="geometry" />
        </mxCell>
      </root>
    </mxGraphModel>
  </diagram>
</mxfile>
